<svg width="494" height="195" viewBox="0 0 494 195"
     xmlns="http://www.w3.org/2000/svg" role="img" aria-label="Contribution activity">
  <defs>
    <linearGradient id="bg" x1="0" y1="0" x2="1" y2="1"><stop offset="0%" stop-color="#050505"/><stop offset="38%" stop-color="#141416"/><stop offset="68%" stop-color="#1d1d20"/><stop offset="100%" stop-color="#0a0a0b"/></linearGradient>
    <linearGradient id="accent" x1="0" y1="0" x2="1" y2="0">
      <stop offset="0%" stop-color="#12d6c4"/>
      <stop offset="100%" stop-color="#49e6d4"/>
    </linearGradient>
    <radialGradient id="glow">
      <stop offset="0%" stop-color="#ffffff" stop-opacity="0.09"/>
      <stop offset="100%" stop-color="#ffffff" stop-opacity="0"/>
    </radialGradient>
    <clipPath id="card"><rect width="494" height="195" rx="26"/></clipPath>
    <linearGradient id="fade" x1="0" y1="0" x2="0" y2="1">
      <stop offset="0%" stop-color="#12d6c4" stop-opacity="0.34"/>
      <stop offset="100%" stop-color="#12d6c4" stop-opacity="0.02"/>
    </linearGradient>
  </defs>
  <rect width="494" height="195" rx="26" fill="url(#bg)"/>
  <g clip-path="url(#card)">
    <ellipse cx="306.28" cy="40" rx="300" ry="150" fill="url(#glow)"/>
  </g>
  <rect x="0.75" y="0.75" width="492.5" height="193.5" rx="25.25"
        fill="none" stroke="#ffffff" stroke-opacity="0.13"/>
  <g font-family="Arial, Helvetica, sans-serif">
    <text x="28" y="36" fill="#43dfcf" font-size="9.5" font-weight="700"
          letter-spacing="2">CONTRIBUTION ACTIVITY</text>
    <text x="468" y="36" fill="#7d8c8a" font-size="8.5"
          text-anchor="end">14d rolling · 126d</text>
    <path d="M40 161.0 H468" stroke="#ffffff"
          stroke-opacity="0.16" stroke-width="1"
          stroke-dasharray=""/>
    <text x="30" y="164.5" fill="#7d8c8a" font-size="9.5"
          text-anchor="end">0</text>
    <path d="M40 106.5 H468" stroke="#ffffff"
          stroke-opacity="0.09" stroke-width="1"
          stroke-dasharray="3 5"/>
    <text x="30" y="110.0" fill="#7d8c8a" font-size="9.5"
          text-anchor="end">194</text>
    <path d="M40 52.0 H468" stroke="#ffffff"
          stroke-opacity="0.09" stroke-width="1"
          stroke-dasharray="3 5"/>
    <text x="30" y="55.5" fill="#7d8c8a" font-size="9.5"
          text-anchor="end">389</text>
    <path d="M40.0 161.0 C40.2 161.0 42.9 161.2 43.4 161.0 C43.9 160.8 46.4 158.4 46.8 158.2 C47.3 158.0 49.8 158.2 50.3 158.2 C50.8 158.2 53.2 158.2 53.7 158.2 C54.2 158.2 56.6 158.2 57.1 158.2 C57.6 158.2 60.1 158.2 60.5 158.2 C61.0 158.2 63.5 158.2 64.0 158.2 C64.4 158.2 66.9 158.4 67.4 158.2 C67.9 158.0 70.3 155.9 70.8 155.7 C71.3 155.5 73.8 155.7 74.2 155.7 C74.7 155.7 77.2 155.8 77.7 155.7 C78.1 155.6 80.6 154.1 81.1 154.0 C81.6 153.9 84.0 154.0 84.5 154.0 C85.0 154.0 87.5 154.0 87.9 154.0 C88.4 154.0 90.9 153.8 91.4 154.0 C91.8 154.2 94.3 156.6 94.8 156.8 C95.3 157.0 97.7 156.8 98.2 156.8 C98.7 156.8 101.2 156.8 101.6 156.8 C102.1 156.8 104.6 156.8 105.1 156.8 C105.5 156.8 108.0 156.8 108.5 156.8 C109.0 156.8 111.4 156.8 111.9 156.8 C112.4 156.8 114.8 156.6 115.3 156.8 C115.8 157.0 118.3 159.1 118.8 159.3 C119.2 159.5 121.7 159.3 122.2 159.3 C122.7 159.3 125.1 159.4 125.6 159.3 C126.1 159.2 128.5 158.3 129.0 158.2 C129.5 158.1 132.0 158.3 132.4 158.2 C132.9 158.1 135.4 157.4 135.9 157.4 C136.4 157.3 138.8 157.4 139.3 157.4 C139.8 157.4 142.2 157.6 142.7 157.4 C143.2 157.2 145.7 154.8 146.1 154.6 C146.6 154.4 149.1 154.8 149.6 154.6 C150.0 154.3 152.5 151.7 153.0 151.5 C153.5 151.2 155.9 151.3 156.4 151.2 C156.9 151.0 159.4 149.4 159.8 149.2 C160.3 149.1 162.8 149.2 163.3 149.2 C163.7 149.2 166.2 149.5 166.7 149.2 C167.2 149.0 169.6 145.7 170.1 145.3 C170.6 144.9 173.1 143.3 173.5 143.3 C174.0 143.3 176.5 145.3 177.0 145.3 C177.4 145.3 179.9 143.1 180.4 142.8 C180.9 142.5 183.3 141.0 183.8 140.8 C184.3 140.7 186.8 140.6 187.2 140.5 C187.7 140.5 190.2 140.1 190.7 140.3 C191.1 140.4 193.6 142.8 194.1 142.8 C194.6 142.8 197.0 140.5 197.5 140.0 C198.0 139.5 200.4 136.7 200.9 136.1 C201.4 135.4 203.9 131.3 204.4 131.0 C204.8 130.7 207.3 132.1 207.8 132.1 C208.3 132.2 210.7 131.6 211.2 131.6 C211.7 131.5 214.1 131.5 214.6 131.6 C215.1 131.6 217.6 132.9 218.0 132.4 C218.5 132.0 221.0 125.7 221.5 125.1 C222.0 124.5 224.4 125.5 224.9 124.0 C225.4 122.5 227.8 105.3 228.3 103.6 C228.8 101.8 231.3 100.5 231.7 99.1 C232.2 97.7 234.7 84.9 235.2 83.4 C235.6 81.9 238.1 78.7 238.6 77.2 C239.1 75.8 241.5 63.9 242.0 62.6 C242.5 61.4 245.0 59.1 245.4 59.0 C245.9 58.9 248.4 61.3 248.9 61.8 C249.3 62.3 251.8 65.6 252.3 65.7 C252.8 65.9 255.2 64.5 255.7 64.3 C256.2 64.2 258.7 63.5 259.1 63.2 C259.6 63.0 262.1 60.9 262.6 60.7 C263.0 60.4 265.5 59.1 266.0 59.6 C266.5 60.0 268.9 67.7 269.4 67.1 C269.9 66.6 272.4 51.8 272.8 52.0 C273.3 52.2 275.8 69.0 276.3 70.5 C276.7 72.0 279.2 72.6 279.7 73.6 C280.2 74.6 282.6 83.4 283.1 84.5 C283.6 85.6 286.0 88.5 286.5 89.5 C287.0 90.5 289.5 97.8 290.0 98.8 C290.4 99.8 292.9 104.0 293.4 104.4 C293.9 104.8 296.3 104.9 296.8 104.7 C297.3 104.4 299.7 101.5 300.2 100.8 C300.7 100.0 303.2 95.1 303.6 94.6 C304.1 94.1 306.6 94.0 307.1 94.0 C307.6 94.1 310.0 94.8 310.5 94.9 C311.0 95.0 313.4 95.4 313.9 95.4 C314.4 95.5 316.9 94.7 317.3 95.7 C317.8 96.7 320.3 108.3 320.8 109.4 C321.2 110.6 323.7 112.2 324.2 112.5 C324.7 112.8 327.1 113.5 327.6 113.9 C328.1 114.3 330.6 118.1 331.0 118.1 C331.5 118.1 334.0 113.8 334.5 113.6 C334.9 113.5 337.4 115.8 337.9 115.6 C338.4 115.4 340.8 110.9 341.3 110.6 C341.8 110.2 344.3 110.7 344.7 110.3 C345.2 109.8 347.7 104.3 348.2 104.1 C348.6 104.0 351.1 107.9 351.6 108.0 C352.1 108.2 354.5 106.2 355.0 106.1 C355.5 106.0 358.0 106.7 358.4 106.4 C358.9 106.1 361.4 102.3 361.9 101.9 C362.3 101.4 364.8 100.2 365.3 99.9 C365.8 99.6 368.2 98.0 368.7 97.7 C369.2 97.4 371.6 95.4 372.1 95.4 C372.6 95.4 375.1 97.6 375.6 97.7 C376.0 97.8 378.5 96.8 379.0 97.1 C379.5 97.5 381.9 102.1 382.4 102.7 C382.9 103.3 385.3 104.8 385.8 105.2 C386.3 105.7 388.8 108.4 389.2 108.9 C389.7 109.4 392.2 111.5 392.7 112.2 C393.2 113.0 395.6 119.1 396.1 119.8 C396.6 120.5 399.0 122.2 399.5 122.6 C400.0 123.1 402.5 126.1 402.9 126.3 C403.4 126.4 405.9 124.5 406.4 124.9 C406.8 125.2 409.3 130.6 409.8 131.0 C410.3 131.4 412.7 130.7 413.2 131.0 C413.7 131.3 416.2 134.5 416.6 134.9 C417.1 135.4 419.6 137.3 420.1 137.2 C420.5 137.0 423.0 133.2 423.5 133.0 C424.0 132.7 426.4 133.9 426.9 133.8 C427.4 133.8 429.9 132.2 430.3 132.1 C430.8 132.1 433.3 132.6 433.8 132.7 C434.2 132.8 436.7 133.8 437.2 133.8 C437.7 133.8 440.1 132.6 440.6 132.7 C441.1 132.8 443.6 135.2 444.0 135.5 C444.5 135.8 447.0 136.3 447.5 136.3 C447.9 136.4 450.4 136.2 450.9 136.3 C451.4 136.4 453.8 137.6 454.3 137.7 C454.8 137.9 457.2 138.1 457.7 138.3 C458.2 138.5 460.7 140.5 461.2 140.5 C461.6 140.6 464.1 139.2 464.6 138.9 C465.1 138.5 467.8 136.0 468.0 135.8 L468.0 161 L40.0 161 Z" fill="url(#fade)"/>
    <path d="M40.0 161.0 C40.2 161.0 42.9 161.2 43.4 161.0 C43.9 160.8 46.4 158.4 46.8 158.2 C47.3 158.0 49.8 158.2 50.3 158.2 C50.8 158.2 53.2 158.2 53.7 158.2 C54.2 158.2 56.6 158.2 57.1 158.2 C57.6 158.2 60.1 158.2 60.5 158.2 C61.0 158.2 63.5 158.2 64.0 158.2 C64.4 158.2 66.9 158.4 67.4 158.2 C67.9 158.0 70.3 155.9 70.8 155.7 C71.3 155.5 73.8 155.7 74.2 155.7 C74.7 155.7 77.2 155.8 77.7 155.7 C78.1 155.6 80.6 154.1 81.1 154.0 C81.6 153.9 84.0 154.0 84.5 154.0 C85.0 154.0 87.5 154.0 87.9 154.0 C88.4 154.0 90.9 153.8 91.4 154.0 C91.8 154.2 94.3 156.6 94.8 156.8 C95.3 157.0 97.7 156.8 98.2 156.8 C98.7 156.8 101.2 156.8 101.6 156.8 C102.1 156.8 104.6 156.8 105.1 156.8 C105.5 156.8 108.0 156.8 108.5 156.8 C109.0 156.8 111.4 156.8 111.9 156.8 C112.4 156.8 114.8 156.6 115.3 156.8 C115.8 157.0 118.3 159.1 118.8 159.3 C119.2 159.5 121.7 159.3 122.2 159.3 C122.7 159.3 125.1 159.4 125.6 159.3 C126.1 159.2 128.5 158.3 129.0 158.2 C129.5 158.1 132.0 158.3 132.4 158.2 C132.9 158.1 135.4 157.4 135.9 157.4 C136.4 157.3 138.8 157.4 139.3 157.4 C139.8 157.4 142.2 157.6 142.7 157.4 C143.2 157.2 145.7 154.8 146.1 154.6 C146.6 154.4 149.1 154.8 149.6 154.6 C150.0 154.3 152.5 151.7 153.0 151.5 C153.5 151.2 155.9 151.3 156.4 151.2 C156.9 151.0 159.4 149.4 159.8 149.2 C160.3 149.1 162.8 149.2 163.3 149.2 C163.7 149.2 166.2 149.5 166.7 149.2 C167.2 149.0 169.6 145.7 170.1 145.3 C170.6 144.9 173.1 143.3 173.5 143.3 C174.0 143.3 176.5 145.3 177.0 145.3 C177.4 145.3 179.9 143.1 180.4 142.8 C180.9 142.5 183.3 141.0 183.8 140.8 C184.3 140.7 186.8 140.6 187.2 140.5 C187.7 140.5 190.2 140.1 190.7 140.3 C191.1 140.4 193.6 142.8 194.1 142.8 C194.6 142.8 197.0 140.5 197.5 140.0 C198.0 139.5 200.4 136.7 200.9 136.1 C201.4 135.4 203.9 131.3 204.4 131.0 C204.8 130.7 207.3 132.1 207.8 132.1 C208.3 132.2 210.7 131.6 211.2 131.6 C211.7 131.5 214.1 131.5 214.6 131.6 C215.1 131.6 217.6 132.9 218.0 132.4 C218.5 132.0 221.0 125.7 221.5 125.1 C222.0 124.5 224.4 125.5 224.9 124.0 C225.4 122.5 227.8 105.3 228.3 103.6 C228.8 101.8 231.3 100.5 231.7 99.1 C232.2 97.7 234.7 84.9 235.2 83.4 C235.6 81.9 238.1 78.7 238.6 77.2 C239.1 75.8 241.5 63.9 242.0 62.6 C242.5 61.4 245.0 59.1 245.4 59.0 C245.9 58.9 248.4 61.3 248.9 61.8 C249.3 62.3 251.8 65.6 252.3 65.7 C252.8 65.9 255.2 64.5 255.7 64.3 C256.2 64.2 258.7 63.5 259.1 63.2 C259.6 63.0 262.1 60.9 262.6 60.7 C263.0 60.4 265.5 59.1 266.0 59.6 C266.5 60.0 268.9 67.7 269.4 67.1 C269.9 66.6 272.4 51.8 272.8 52.0 C273.3 52.2 275.8 69.0 276.3 70.5 C276.7 72.0 279.2 72.6 279.7 73.6 C280.2 74.6 282.6 83.4 283.1 84.5 C283.6 85.6 286.0 88.5 286.5 89.5 C287.0 90.5 289.5 97.8 290.0 98.8 C290.4 99.8 292.9 104.0 293.4 104.4 C293.9 104.8 296.3 104.9 296.8 104.7 C297.3 104.4 299.7 101.5 300.2 100.8 C300.7 100.0 303.2 95.1 303.6 94.6 C304.1 94.1 306.6 94.0 307.1 94.0 C307.6 94.1 310.0 94.8 310.5 94.9 C311.0 95.0 313.4 95.4 313.9 95.4 C314.4 95.5 316.9 94.7 317.3 95.7 C317.8 96.7 320.3 108.3 320.8 109.4 C321.2 110.6 323.7 112.2 324.2 112.5 C324.7 112.8 327.1 113.5 327.6 113.9 C328.1 114.3 330.6 118.1 331.0 118.1 C331.5 118.1 334.0 113.8 334.5 113.6 C334.9 113.5 337.4 115.8 337.9 115.6 C338.4 115.4 340.8 110.9 341.3 110.6 C341.8 110.2 344.3 110.7 344.7 110.3 C345.2 109.8 347.7 104.3 348.2 104.1 C348.6 104.0 351.1 107.9 351.6 108.0 C352.1 108.2 354.5 106.2 355.0 106.1 C355.5 106.0 358.0 106.7 358.4 106.4 C358.9 106.1 361.4 102.3 361.9 101.9 C362.3 101.4 364.8 100.2 365.3 99.9 C365.8 99.6 368.2 98.0 368.7 97.7 C369.2 97.4 371.6 95.4 372.1 95.4 C372.6 95.4 375.1 97.6 375.6 97.7 C376.0 97.8 378.5 96.8 379.0 97.1 C379.5 97.5 381.9 102.1 382.4 102.7 C382.9 103.3 385.3 104.8 385.8 105.2 C386.3 105.7 388.8 108.4 389.2 108.9 C389.7 109.4 392.2 111.5 392.7 112.2 C393.2 113.0 395.6 119.1 396.1 119.8 C396.6 120.5 399.0 122.2 399.5 122.6 C400.0 123.1 402.5 126.1 402.9 126.3 C403.4 126.4 405.9 124.5 406.4 124.9 C406.8 125.2 409.3 130.6 409.8 131.0 C410.3 131.4 412.7 130.7 413.2 131.0 C413.7 131.3 416.2 134.5 416.6 134.9 C417.1 135.4 419.6 137.3 420.1 137.2 C420.5 137.0 423.0 133.2 423.5 133.0 C424.0 132.7 426.4 133.9 426.9 133.8 C427.4 133.8 429.9 132.2 430.3 132.1 C430.8 132.1 433.3 132.6 433.8 132.7 C434.2 132.8 436.7 133.8 437.2 133.8 C437.7 133.8 440.1 132.6 440.6 132.7 C441.1 132.8 443.6 135.2 444.0 135.5 C444.5 135.8 447.0 136.3 447.5 136.3 C447.9 136.4 450.4 136.2 450.9 136.3 C451.4 136.4 453.8 137.6 454.3 137.7 C454.8 137.9 457.2 138.1 457.7 138.3 C458.2 138.5 460.7 140.5 461.2 140.5 C461.6 140.6 464.1 139.2 464.6 138.9 C465.1 138.5 467.8 136.0 468.0 135.8" fill="none" stroke="url(#accent)" stroke-width="2.4"
          stroke-linecap="round" stroke-linejoin="round"/>
    <circle cx="468.0" cy="135.8" r="9" fill="#49e6d4" opacity="0.16"/>
    <circle cx="468.0" cy="135.8" r="3.6" fill="#49e6d4"/>
    <text x="466.0" y="120.8" fill="#eafffb" font-size="12"
          font-weight="700" text-anchor="end">90</text>
    <text x="40.0" y="183" fill="#7d8c8a" font-size="10"
          text-anchor="middle">Jun</text>
    <text x="125.6" y="183" fill="#7d8c8a" font-size="10"
          text-anchor="middle">Jul</text>
    <text x="231.7" y="183" fill="#7d8c8a" font-size="10"
          text-anchor="middle">Aug</text>
    <text x="337.9" y="183" fill="#7d8c8a" font-size="10"
          text-anchor="middle">Sep</text>
    <text x="440.6" y="183" fill="#7d8c8a" font-size="10"
          text-anchor="middle">Oct</text>
    <circle cx="272.8" cy="52.0" r="3.2" fill="none"
            stroke="#49e6d4" stroke-width="1.6"/>
    <text x="272.8" y="39.0" fill="#43dfcf" font-size="10.5"
          font-weight="700" text-anchor="middle">PEAK 389</text></g>
</svg>
