<svg width="494" height="195" viewBox="0 0 494 195"
     xmlns="http://www.w3.org/2000/svg" role="img" aria-label="Coding activity">
  <defs>
    <linearGradient id="bg" x1="0" y1="0" x2="1" y2="1"><stop offset="0%" stop-color="#050505"/><stop offset="38%" stop-color="#141416"/><stop offset="68%" stop-color="#1d1d20"/><stop offset="100%" stop-color="#0a0a0b"/></linearGradient>
    <linearGradient id="accent" x1="0" y1="0" x2="1" y2="0">
      <stop offset="0%" stop-color="#12d6c4"/>
      <stop offset="100%" stop-color="#49e6d4"/>
    </linearGradient>
    <radialGradient id="glow">
      <stop offset="0%" stop-color="#ffffff" stop-opacity="0.09"/>
      <stop offset="100%" stop-color="#ffffff" stop-opacity="0"/>
    </radialGradient>
    <clipPath id="card"><rect width="494" height="195" rx="26"/></clipPath>
  </defs>
  <rect width="494" height="195" rx="26" fill="url(#bg)"/>
  <g clip-path="url(#card)">
    <ellipse cx="306.28" cy="40" rx="300" ry="150" fill="url(#glow)"/>
  </g>
  <rect x="0.75" y="0.75" width="492.5" height="193.5" rx="25.25"
        fill="none" stroke="#ffffff" stroke-opacity="0.13"/>
  <g font-family="Arial, Helvetica, sans-serif">
    <text x="28" y="38" fill="#43dfcf" font-size="11" font-weight="700"
          letter-spacing="2.2">CODING ACTIVITY</text>
    <text x="466" y="38" fill="#7d8c8a" font-size="10.5"
          text-anchor="end">last 7 days · 15 hrs 57 mins</text>
    <path d="M28 54 H466" stroke="#ffffff" stroke-opacity="0.10"/>
    <text x="28" y="82" fill="#eafffb" font-size="12.5"
          font-weight="700">JavaScript</text>
    <text x="150" y="82" fill="#7d8c8a" font-size="10.5">5 hrs 39 mins</text>
    <rect x="258" y="74" width="160" height="7" rx="3.5" fill="#ffffff" fill-opacity="0.07"/><rect x="258" y="74" width="44.0" height="7" rx="3.5" fill="url(#accent)"/>
    <text x="466" y="82" fill="#43dfcf" font-size="11"
          font-weight="700" text-anchor="end">27%</text>
    <text x="28" y="105" fill="#eafffb" font-size="12.5"
          font-weight="700">TypeScript</text>
    <text x="150" y="105" fill="#7d8c8a" font-size="10.5">5 hrs 38 mins</text>
    <rect x="258" y="97" width="160" height="7" rx="3.5" fill="#ffffff" fill-opacity="0.07"/><rect x="258" y="97" width="43.9" height="7" rx="3.5" fill="url(#accent)"/>
    <text x="466" y="105" fill="#43dfcf" font-size="11"
          font-weight="700" text-anchor="end">27%</text>
    <text x="28" y="128" fill="#eafffb" font-size="12.5"
          font-weight="700">Other</text>
    <text x="150" y="128" fill="#7d8c8a" font-size="10.5">4 hrs 38 mins</text>
    <rect x="258" y="120" width="160" height="7" rx="3.5" fill="#ffffff" fill-opacity="0.07"/><rect x="258" y="120" width="36.0" height="7" rx="3.5" fill="url(#accent)"/>
    <text x="466" y="128" fill="#43dfcf" font-size="11"
          font-weight="700" text-anchor="end">23%</text>
    <text x="28" y="151" fill="#eafffb" font-size="12.5"
          font-weight="700">Dart</text>
    <text x="150" y="151" fill="#7d8c8a" font-size="10.5">2 hrs 21 mins</text>
    <rect x="258" y="143" width="160" height="7" rx="3.5" fill="#ffffff" fill-opacity="0.07"/><rect x="258" y="143" width="18.3" height="7" rx="3.5" fill="url(#accent)"/>
    <text x="466" y="151" fill="#43dfcf" font-size="11"
          font-weight="700" text-anchor="end">11%</text>
    <text x="28" y="174" fill="#eafffb" font-size="12.5"
          font-weight="700">Markdown</text>
    <text x="150" y="174" fill="#7d8c8a" font-size="10.5">1 hr 9 mins</text>
    <rect x="258" y="166" width="160" height="7" rx="3.5" fill="#ffffff" fill-opacity="0.07"/><rect x="258" y="166" width="8.9" height="7" rx="3.5" fill="url(#accent)"/>
    <text x="466" y="174" fill="#43dfcf" font-size="11"
          font-weight="700" text-anchor="end">6%</text></g>
</svg>
